name Walk2.mot
datacolumns 19
datarows 15
range 1.35600000 1.37000000
endheader

                time	   L_ground_force_vx	   L_ground_force_vy	   L_ground_force_vz	   L_ground_force_px	   L_ground_force_py	   L_ground_force_pz	   R_ground_force_vx	   R_ground_force_vy	   R_ground_force_vz	   R_ground_force_px	   R_ground_force_py	   R_ground_force_pz	   L_ground_torque_x	   L_ground_torque_y	   L_ground_torque_z	   R_ground_torque_x	   R_ground_torque_y	   R_ground_torque_z	
          1.35600000	          0.00000000	         -0.00000003	          0.00000000	         -0.00000000	          0.00000000	         -0.00000000	         -6.60476009	         88.56997867	          8.21795922	         -0.02271905	          0.00000000	          0.01565122	          0.00000000	          0.00000000	          0.00000000	          0.00000000	          0.16731260	          0.00000000	
          1.35700000	          0.00000000	         -0.00000003	          0.00000000	         -0.00000000	          0.00000000	         -0.00000000	         -7.67395336	         96.79313342	          8.72548963	         -0.03192175	          0.00000000	          0.02817593	          0.00000000	          0.00000000	          0.00000000	          0.00000000	          0.16054109	          0.00000000	
          1.35800000	          0.00000000	         -0.00000003	          0.00000000	         -0.00000000	          0.00000000	         -0.00000000	         -8.78029855	        105.30012060	          9.24692563	         -0.04112653	          0.00000000	          0.04069180	          0.00000000	          0.00000000	          0.00000000	          0.00000000	          0.15443491	          0.00000000	
          1.35900000	          0.00000000	         -0.00000004	          0.00000000	         -0.00000000	          0.00000000	         -0.00000000	         -9.92324565	        114.08362302	          9.78135186	         -0.05030739	          0.00000000	          0.05316364	          0.00000000	          0.00000000	          0.00000000	          0.00000000	          0.14904594	          0.00000000	
          1.36000000	          0.00000000	         -0.00000004	          0.00000001	         -0.00000000	          0.00000000	         -0.00000000	        -11.10211032	        123.13468905	         10.32770843	         -0.05943782	          0.00000000	          0.06555585	          0.00000000	          0.00000000	          0.00000000	          0.00000000	          0.14442338	          0.00000000	
          1.36100000	          0.00000000	         -0.00000004	          0.00000001	         -0.00000000	          0.00000000	         -0.00000000	        -12.31606998	        132.44264383	         10.88478178	         -0.06849140	          0.00000000	          0.07783321	          0.00000000	          0.00000000	          0.00000000	          0.00000000	          0.14061272	          0.00000000	
          1.36200000	          0.00000000	         -0.00000004	          0.00000001	         -0.00000000	          0.00000000	         -0.00000000	        -13.56417389	        141.99503580	         11.45119416	         -0.07744261	          0.00000000	          0.08996223	          0.00000000	          0.00000000	          0.00000000	          0.00000000	          0.13765372	          0.00000000	
          1.36300000	          0.00000000	         -0.00000005	          0.00000001	         -0.00000000	          0.00000000	         -0.00000000	        -14.84536195	        151.77758616	         12.02539129	         -0.08626748	          0.00000000	          0.10191194	          0.00000000	          0.00000000	          0.00000000	          0.00000000	          0.13557817	          0.00000000	
          1.36400000	          0.00000000	         -0.00000005	          0.00000001	         -0.00000000	          0.00000000	         -0.00000000	        -16.15848971	        161.77413099	         12.60562829	         -0.09494368	          0.00000000	          0.11365416	          0.00000000	          0.00000000	          0.00000000	          0.00000000	          0.13440818	          0.00000000	
          1.36500000	          0.00000000	         -0.00000005	          0.00000001	         -0.00000000	          0.00000000	         -0.00000000	        -17.50236338	        171.96658283	         13.18995444	         -0.10345058	          0.00000000	          0.12516343	          0.00000000	          0.00000000	          0.00000000	          0.00000000	          0.13415494	          0.00000000	
          1.36600000	          0.00000000	         -0.00000005	          0.00000001	         -0.00000000	          0.00000000	         -0.00000000	        -18.87578816	        182.33494315	         13.77619750	         -0.11176931	          0.00000000	          0.13641697	          0.00000000	          0.00000000	          0.00000000	          0.00000000	          0.13481830	          0.00000000	
          1.36700000	          0.00000000	         -0.00000006	          0.00000001	         -0.00000000	          0.00000000	         -0.00000000	        -20.27763042	        192.85739302	         14.36194868	         -0.11988284	          0.00000000	          0.14739470	          0.00000000	          0.00000000	          0.00000000	          0.00000000	          0.13638716	          0.00000000	
          1.36800000	          0.00000000	         -0.00000006	          0.00000001	         -0.00000000	          0.00000000	         -0.00000000	        -21.70689218	        203.51048563	         14.94455011	         -0.12777601	          0.00000000	          0.15807915	          0.00000000	          0.00000000	          0.00000000	          0.00000000	          0.13884078	          0.00000000	
          1.36900000	          0.00000000	         -0.00000006	          0.00000001	         -0.00000000	          0.00000000	         -0.00000000	        -23.16279205	        214.26945415	         15.52108662	         -0.13543555	          0.00000000	          0.16845538	          0.00000000	          0.00000000	          0.00000000	          0.00000000	          0.14215060	          0.00000000	
          1.37000000	          0.00000000	         -0.00000006	          0.00000001	         -0.00000000	          0.00000000	         -0.00000000	        -24.64484323	        225.10863235	         16.08838494	         -0.14285000	          0.00000000	          0.17851086	          0.00000000	          0.00000000	          0.00000000	          0.00000000	          0.14628248	          0.00000000	
